# xmcd CD database file
#
# Track frame offsets:
#	150
#	25196
#	54830
#	90655
#	126894
#	162571
#	200433
#
# Disc length: 3123 seconds
#
# Revision: 0
# Processed by: cddbd v1.5.2PL0 Copyright (c) Steve Scherf et al.
# Submitted via: CDex 1.51
#
DISCID=550c3107
DTITLE=Pierre Favre Ensemble - Fleuve
DYEAR=2006
DGENRE=Jazz
TTITLE0=Mort d'Eurydice
TTITLE1=Panama
TTITLE2=Albatros
TTITLE3=Reflet Sud
TTITLE4=Fire Red - Gas Blue - Ghost Green
TTITLE5=Nile
TTITLE6=Decors
EXTD=YEAR: 2006
EXTT0=
EXTT1=
EXTT2=
EXTT3=
EXTT4=
EXTT5=
EXTT6=
PLAYORDER=
